PathFileType  4	(X/Y/Z) C:\simtk\uwmodels\fbknee\data\invivovalid2\exp\aclc01\Files_W_HJCs
DataRate	CameraRate	NumFrames	NumMarkers	Units	OrigDataRate	OrigDataStartFrame	OrigNumFrames
  200.0      200.0        9         42 mm      200.0         322       515
Frame#	Time            R.Shoulder                       R.Clavicle                       R.Bicep                          R.Elbow                          R.Forearm                        R.Wrist                          L.Shoulder                       L.Clavicle                       L.Scapula                        L.Bicep                          L.Elbow                          L.Forearm                        L.Wrist                          R.ASIS                           R.PSIS                           S2                               L.PSIS                           L.ASIS                           R.TH1                            R.TH2                            R.TH3                            R.Knee                           R.SH1                            R.SH2                            R.SH3                            R.SH4                            R.Ankle                          R.Heel                           R.MT5                            L.TH1                            L.TH2                            L.TH3                            L.TH4                            L.Knee                           L.SH1                            L.SH2                            L.SH3                            L.Ankle                          L.Heel                           L.MT5                            R_HJC                            L_HJC                  
                     X1         Y1         Z1         X2         Y2         Z2         X3         Y3         Z3         X4         Y4         Z4         X5         Y5         Z5         X6         Y6         Z6         X7         Y7         Z7         X8         Y8         Z8         X9         Y9         Z9         X10         Y10         Z10         X11         Y11         Z11         X12         Y12         Z12         X13         Y13         Z13         X14         Y14         Z14         X15         Y15         Z15         X16         Y16         Z16         X17         Y17         Z17         X18         Y18         Z18         X19         Y19         Z19         X20         Y20         Z20         X21         Y21         Z21         X22         Y22         Z22         X23         Y23         Z23         X24         Y24         Z24         X25         Y25         Z25         X26         Y26         Z26         X27         Y27         Z27         X28         Y28         Z28         X29         Y29         Z29         X30         Y30         Z30         X31         Y31         Z31         X32         Y32         Z32         X33         Y33         Z33         X34         Y34         Z34         X35         Y35         Z35         X36         Y36         Z36         X37         Y37         Z37         X38         Y38         Z38         X39         Y39         Z39         X40         Y40         Z40         X41         Y41         Z41         X42         Y42         Z42         

	322	1.60500	464.161	4.940	1355.131	514.771	153.570	1338.916	503.422	2.617	1133.295	431.294	-96.044	1051.402	541.304	-61.753	981.675	565.071	-116.435	878.770	464.373	384.248	1346.691	521.047	209.892	1334.310	337.076	277.220	1345.367	480.731	402.210	1169.039	390.622	468.397	1045.600	444.940	453.607	944.036	414.434	501.003	837.444	524.597	53.314	910.873	287.397	140.770	963.449	282.401	191.652	958.037	293.135	246.823	969.619	522.982	313.904	908.229	471.271	6.310	679.866	321.951	44.216	683.528	327.142	62.692	611.433	376.297	64.462	469.949	404.593	53.624	330.022	402.914	73.173	257.121	300.558	107.822	348.622	296.448	120.239	273.216	361.795	120.248	71.651	300.838	182.186	43.395	478.753	87.018	22.102	568.307	382.720	686.098	605.269	364.219	614.948	435.965	381.351	620.530	464.570	369.414	549.096	530.563	380.990	498.640	541.405	388.983	399.097	444.225	356.610	444.849	411.592	357.150	373.050	399.584	350.873	127.700	312.233	300.853	124.073	469.507	367.026	35.878	429.823	92.690	860.764	429.287	287.483	836.178
	323	1.61000	470.901	4.817	1355.290	520.560	153.387	1339.139	509.447	1.885	1133.488	438.087	-96.662	1051.678	548.928	-62.467	983.023	574.095	-117.010	880.954	470.624	385.032	1346.440	527.298	210.077	1334.604	343.950	277.927	1345.380	486.561	402.187	1168.936	392.774	467.811	1046.407	446.045	454.473	944.016	412.448	501.865	838.296	529.849	52.699	910.034	292.470	142.671	963.358	287.459	191.887	957.779	298.539	246.047	969.948	529.058	313.654	908.904	474.097	5.738	679.325	325.782	44.596	684.178	329.892	63.390	612.101	377.276	64.546	470.454	405.339	53.606	330.146	403.017	72.762	257.222	301.409	108.533	349.553	296.962	120.959	273.781	361.800	120.333	71.551	300.752	182.274	43.570	478.753	87.018	22.102	575.792	381.140	687.229	612.737	362.341	616.284	443.635	380.629	620.688	472.536	369.003	549.521	539.706	379.277	498.726	552.370	387.492	400.077	457.970	354.806	441.528	422.500	356.879	369.845	420.167	350.375	123.326	331.059	299.921	117.422	492.674	367.589	34.667	434.810	93.029	860.218	435.130	287.955	836.699
	324	1.61500	477.032	4.821	1355.344	527.264	154.002	1338.774	517.112	1.564	1134.214	444.947	-97.109	1051.818	556.731	-63.213	984.360	582.830	-116.973	881.933	476.785	385.006	1346.347	533.707	209.643	1334.595	349.352	277.207	1345.081	489.854	402.057	1168.499	395.177	467.569	1047.091	446.665	455.356	943.551	410.718	503.102	839.099	535.484	52.504	909.550	298.454	140.494	964.156	293.522	192.129	957.803	313.027	246.764	966.713	535.792	313.195	908.714	477.279	5.823	678.604	328.898	45.277	685.004	332.524	63.978	613.272	378.358	64.613	470.773	405.715	53.594	330.359	403.307	72.851	257.210	302.422	109.274	349.536	297.722	121.038	274.667	361.913	120.315	71.718	300.752	182.274	43.570	478.753	87.018	22.102	583.512	379.212	687.541	620.761	360.495	617.220	452.200	381.462	621.214	481.233	369.287	549.931	548.005	378.347	498.960	563.303	386.529	400.952	468.021	353.157	438.592	434.589	356.152	366.163	439.124	350.620	119.294	351.126	299.884	108.534	517.626	367.181	35.530	441.955	92.210	859.760	443.258	287.074	835.767
	325	1.62000	483.050	4.880	1355.551	534.033	153.293	1339.049	522.908	0.967	1133.966	452.115	-97.703	1051.917	564.010	-60.885	985.698	591.647	-117.216	883.366	483.650	384.777	1346.367	540.435	209.692	1334.660	355.696	277.354	1344.793	494.245	402.759	1167.936	396.833	467.042	1047.413	447.439	455.934	943.363	407.927	503.687	839.971	541.388	50.223	909.393	304.536	140.595	964.834	299.521	192.922	958.044	311.980	248.482	968.216	542.375	312.472	908.859	480.563	5.923	678.171	332.595	45.878	686.391	335.799	64.164	613.844	380.285	64.921	470.940	406.215	53.452	330.477	404.256	73.006	257.500	303.777	109.333	350.151	298.702	120.640	275.187	362.113	120.416	71.880	300.752	182.274	43.570	478.753	87.018	22.102	590.802	377.845	688.255	628.080	358.194	618.043	460.113	380.678	621.529	488.948	368.758	550.202	555.630	376.261	498.931	574.483	385.121	403.010	477.181	352.080	435.222	445.632	355.375	362.044	459.428	350.217	115.496	371.729	300.142	101.832	539.128	366.939	30.962	446.342	91.949	860.278	448.255	286.796	836.199
	326	1.62500	489.906	5.087	1355.380	539.788	153.115	1338.608	530.505	0.445	1134.065	458.981	-98.365	1051.997	572.122	-61.277	986.768	601.078	-116.755	884.562	489.133	384.794	1346.268	545.802	210.085	1333.891	362.251	277.430	1344.413	496.808	402.802	1167.256	398.927	466.361	1048.523	447.649	456.880	943.123	405.790	504.330	840.671	552.682	52.127	909.815	310.081	142.058	964.268	305.409	193.409	957.533	318.661	248.177	969.428	549.129	311.907	908.684	484.364	5.728	677.937	336.348	45.616	686.983	339.054	65.151	614.582	381.967	65.090	471.323	407.597	53.498	330.727	404.764	72.837	257.831	304.965	109.609	351.071	299.697	121.198	275.891	362.113	120.416	71.880	300.752	182.274	43.570	478.753	87.018	22.102	598.821	376.148	688.348	636.314	356.174	618.442	467.695	381.353	621.047	496.772	368.327	549.855	563.583	375.150	498.974	584.443	384.443	402.523	483.932	351.254	433.120	457.255	354.543	358.037	479.253	349.938	111.599	391.510	299.448	95.684	560.940	367.981	32.261	454.348	92.705	860.610	455.255	287.531	836.297
	327	1.63000	495.930	4.702	1355.000	546.075	153.094	1338.207	536.709	0.318	1134.418	466.749	-98.845	1051.561	579.721	-62.087	987.881	609.436	-117.189	885.143	495.365	385.334	1345.234	552.409	209.586	1333.550	367.774	277.471	1344.496	501.126	402.996	1167.589	400.782	465.969	1049.137	448.124	457.874	943.210	404.349	504.733	841.629	546.236	51.578	906.868	315.590	143.494	964.543	311.619	193.590	957.935	324.758	248.036	968.016	555.316	311.763	908.651	487.706	5.893	677.462	339.972	46.251	687.729	341.974	65.413	615.479	383.938	65.224	471.207	408.181	53.537	330.773	405.565	72.745	257.851	306.150	110.129	351.413	300.510	121.759	276.350	362.378	120.444	71.950	300.752	182.274	43.570	478.753	87.018	22.102	606.348	374.393	688.437	643.350	353.187	618.486	475.742	380.985	620.780	504.655	367.969	549.945	570.406	373.661	498.869	594.473	382.725	403.258	492.265	349.764	429.775	469.096	353.285	354.573	498.927	349.963	108.201	412.397	300.682	88.403	582.626	368.243	30.941	455.094	92.975	858.192	459.718	288.038	836.318
	328	1.63500	502.160	4.600	1354.563	552.298	153.523	1337.668	544.053	-0.375	1134.448	473.577	-99.270	1051.499	587.461	-62.434	988.317	618.030	-117.324	886.897	500.479	385.479	1344.449	559.182	209.830	1333.227	374.393	277.039	1344.547	506.297	403.609	1166.518	402.522	465.610	1049.878	448.516	458.411	943.139	402.584	505.360	842.437	562.385	51.466	908.741	321.232	142.699	964.227	318.245	193.929	957.332	330.600	249.494	967.379	561.757	311.398	908.144	491.373	6.249	677.099	342.914	46.339	688.659	345.224	65.695	615.802	386.518	65.358	471.556	409.404	53.838	330.926	406.289	72.763	257.795	307.076	109.799	352.017	301.137	122.036	277.013	362.724	120.620	71.812	300.752	182.274	43.570	478.449	87.168	22.434	613.127	372.478	688.099	650.883	351.062	618.641	483.595	381.119	620.979	512.347	367.216	549.874	579.104	372.529	498.126	604.444	381.349	403.422	504.711	348.134	425.257	482.056	351.524	349.479	518.029	350.137	104.796	433.408	301.216	81.583	609.857	367.699	32.816	465.193	92.576	859.831	467.556	287.379	835.430
	329	1.64000	508.811	4.908	1354.382	559.456	152.764	1337.514	550.718	-0.735	1134.338	480.941	-99.963	1051.093	594.888	-63.071	989.380	627.231	-117.153	887.009	507.407	385.503	1344.198	565.555	209.810	1332.912	380.821	276.644	1343.704	510.434	403.517	1165.773	404.870	465.107	1050.398	450.200	459.523	943.261	400.609	506.691	843.673	568.240	50.699	907.633	327.409	143.149	964.752	323.586	193.267	957.930	335.143	249.745	967.634	568.164	311.123	907.422	495.100	6.381	676.543	346.903	47.494	688.820	348.232	66.171	616.447	388.962	65.259	471.634	410.892	53.829	330.825	407.175	73.063	257.621	308.897	110.665	352.573	302.422	121.939	277.081	362.722	120.909	71.753	300.560	183.294	43.563	478.350	86.710	22.361	620.537	370.786	687.962	657.707	348.821	617.915	490.737	380.636	620.134	519.502	366.363	549.308	586.273	370.394	497.240	613.564	379.860	402.330	513.789	347.945	421.119	493.012	350.489	344.708	538.985	349.446	101.386	455.010	300.641	76.149	631.001	367.327	31.929	470.370	92.359	859.484	472.840	287.169	835.157
	330	1.64500	515.105	4.819	1353.506	564.914	153.399	1336.032	557.821	-1.316	1134.182	488.560	-100.393	1050.970	602.746	-62.957	989.798	635.284	-116.922	887.728	513.460	385.584	1343.667	571.072	209.371	1331.707	386.943	277.452	1343.187	514.239	404.026	1164.672	407.530	464.841	1051.221	451.715	460.536	943.257	399.996	507.100	844.489	574.840	50.435	906.859	333.671	142.454	965.639	329.729	193.981	957.346	340.606	249.770	967.520	574.504	310.573	906.749	498.530	6.904	675.998	351.129	47.684	689.496	351.579	66.403	617.187	391.232	65.709	471.352	412.237	54.167	331.077	407.650	73.309	258.030	309.677	111.441	353.187	303.510	122.484	277.481	362.900	120.943	71.552	300.752	182.274	43.570	478.023	86.545	22.268	628.085	368.869	687.174	664.882	346.424	617.569	498.203	379.517	619.224	527.882	366.680	548.957	592.975	368.944	496.302	624.331	378.345	402.935	520.603	346.889	417.418	504.813	349.747	340.192	559.899	349.680	99.159	475.861	300.040	70.464	651.969	367.422	31.053	476.303	92.085	859.248	478.743	286.861	834.646
